# xmcd
# 
# Track frame offsets:
#     150
#     6397
#     22847
#     47845
#     68025
#     88127
#     104962
#     124547
#     143432
#     171762
#     194977
#     215105
# 
# Disc length: 3160
# 
# Revision: 6
# Processed by: cddbd v1.5.2PL0 Copyright (c) Steve Scherf et al.
# Submitted via: fre:ac v1.0.31
# 
DISCID=b20c560c
DTITLE=彭佳慧 - 情歌手
DYEAR=2001
DGENRE=Chinese Pop
TTITLE0=Opening
TTITLE1=亮晶晶
TTITLE2=喜歡兩個人
TTITLE3=情歌手
TTITLE4=請保持微笑
TTITLE5=路人
TTITLE6=態度
TTITLE7=訊息
TTITLE8=經過
TTITLE9=好預兆
TTITLE10=別問我愛誰
TTITLE11=Can't stop Christmas
EXTD=YEAR: 2001
EXTT0=
EXTT1=
EXTT2=
EXTT3=
EXTT4=
EXTT5=
EXTT6=
EXTT7=
EXTT8=
EXTT9=
EXTT10=
EXTT11=
PLAYORDER=
